<?xml version="1.0" encoding="UTF-8"?><svg xmlns="http://www.w3.org/2000/svg" viewBox="0 0 1996.45 1500"><defs><style>.d{fill:#9c9c9c;}.e{fill:#818181;}.f{fill:#737373;}.g{fill:#6e6e6e;}.h{fill:#919191;}</style></defs><g id="a"/><g id="b"><g id="c"><g><path class="e" d="M1996.45,218.35v161.48l-453.84,346.83V148.92c43.02-32.59,102.93-77.52,149.31-112.19,68.35-51.19,164.38-49.2,227.65,8.08,47.2,42.93,76.88,104.75,76.88,173.55Z"/><path class="g" d="M1996.45,379.83v984.02c0,75.16-61,136.15-136.15,136.15h-317.69V726.66l453.84-346.83Z"/><polygon class="h" points="1542.61 148.92 1542.61 726.66 998.27 1142.47 453.84 726.66 453.84 148.92 998.27 561.73 1542.61 148.92"/><path class="f" d="M453.84,148.92V726.66L0,379.83V218.35C0,149.55,29.68,87.74,76.88,44.8c63.27-57.28,159.3-59.27,227.65-8.08,46.38,34.68,106.29,79.6,149.31,112.19Z"/><path class="d" d="M453.84,726.66v773.34H136.15c-75.16,0-136.15-60.99-136.15-136.15V379.83l453.84,346.83Z"/></g></g></g></svg>